<svg xmlns="http://www.w3.org/2000/svg" viewBox="0 0 500 500">
    <defs>
        <radialGradient id="a" cx="243.63" cy="265.01" r="274.73" gradientUnits="userSpaceOnUse">
            <stop offset="0" stop-color="#73b0ff"/>
            <stop offset=".06" stop-color="#6cacff"/>
            <stop offset=".14" stop-color="#58a1ff"/>
            <stop offset=".25" stop-color="#378eff"/>
            <stop offset=".37" stop-color="#0975ff"/>
            <stop offset=".39" stop-color="#0070ff"/>
            <stop offset=".45" stop-color="#0070ff" stop-opacity=".99"/>
            <stop offset=".49" stop-color="#0070ff" stop-opacity=".95"/>
            <stop offset=".53" stop-color="#0070ff" stop-opacity=".89"/>
            <stop offset=".56" stop-color="#0070ff" stop-opacity=".81"/>
            <stop offset=".59" stop-color="#0070ff" stop-opacity=".7"/>
            <stop offset=".62" stop-color="#0070ff" stop-opacity=".56"/>
            <stop offset=".65" stop-color="#0070ff" stop-opacity=".4"/>
            <stop offset=".67" stop-color="#0070ff" stop-opacity=".22"/>
            <stop offset=".7" stop-color="#0070ff" stop-opacity=".01"/>
            <stop offset=".7" stop-color="#0070ff" stop-opacity="0"/>
        </radialGradient>
        <radialGradient id="b" cx="245.11" cy="266.28" r="187.94" gradientUnits="userSpaceOnUse">
            <stop offset="0" stop-color="#fff"/>
            <stop offset=".39" stop-color="#fff"/>
            <stop offset=".46" stop-color="#fff" stop-opacity=".88"/>
            <stop offset=".63" stop-color="#fff" stop-opacity=".57"/>
            <stop offset=".83" stop-color="#fff" stop-opacity=".2"/>
        </radialGradient>
        <radialGradient id="c" cx="239.85" cy="261.97" r="258.22" gradientUnits="userSpaceOnUse">
            <stop offset="0" stop-color="#fff"/>
            <stop offset=".11" stop-color="#fdfeff" stop-opacity=".99"/>
            <stop offset=".21" stop-color="#f7faff" stop-opacity=".94"/>
            <stop offset=".31" stop-color="#edf5ff" stop-opacity=".87"/>
            <stop offset=".41" stop-color="#dfedff" stop-opacity=".77"/>
            <stop offset=".5" stop-color="#cce2ff" stop-opacity=".64"/>
            <stop offset=".59" stop-color="#b6d6ff" stop-opacity=".48"/>
            <stop offset=".68" stop-color="#9bc7ff" stop-opacity=".29"/>
            <stop offset=".77" stop-color="#7db6ff" stop-opacity=".07"/>
            <stop offset=".8" stop-color="#73b0ff" stop-opacity="0"/>
        </radialGradient>
        <radialGradient id="d" cx="239.85" cy="260.3" r="264.37" gradientUnits="userSpaceOnUse">
            <stop offset="0" stop-color="#fff"/>
            <stop offset=".1" stop-color="#fcfeff" stop-opacity=".98"/>
            <stop offset=".21" stop-color="#f5f9ff" stop-opacity=".93"/>
            <stop offset=".33" stop-color="#e9f2ff" stop-opacity=".84"/>
            <stop offset=".45" stop-color="#d7e9ff" stop-opacity=".72"/>
            <stop offset=".57" stop-color="#c1dcff" stop-opacity=".56"/>
            <stop offset=".7" stop-color="#a6cdff" stop-opacity=".36"/>
            <stop offset=".82" stop-color="#86bbff" stop-opacity=".13"/>
            <stop offset=".89" stop-color="#73b0ff" stop-opacity="0"/>
        </radialGradient>
        <radialGradient id="e" cx="239.85" cy="262.01" r="260.67" gradientUnits="userSpaceOnUse">
            <stop offset="0" stop-color="#fff"/>
            <stop offset=".2" stop-color="#fefeff" stop-opacity=".99"/>
            <stop offset=".31" stop-color="#f9fcff" stop-opacity=".96"/>
            <stop offset=".4" stop-color="#f2f7ff" stop-opacity=".9"/>
            <stop offset=".48" stop-color="#e7f1ff" stop-opacity=".83"/>
            <stop offset=".55" stop-color="#d9e9ff" stop-opacity=".73"/>
            <stop offset=".62" stop-color="#c7e0ff" stop-opacity=".6"/>
            <stop offset=".68" stop-color="#b3d4ff" stop-opacity=".45"/>
            <stop offset=".74" stop-color="#9bc6ff" stop-opacity=".28"/>
            <stop offset=".79" stop-color="#81b8ff" stop-opacity=".1"/>
            <stop offset=".82" stop-color="#73b0ff" stop-opacity="0"/>
        </radialGradient>
        <radialGradient id="f" cx="239.85" cy="262.01" r="260.67" gradientUnits="userSpaceOnUse">
            <stop offset=".01" stop-color="#fff"/>
            <stop offset=".09" stop-color="#fafcff" stop-opacity=".97"/>
            <stop offset=".23" stop-color="#edf5ff" stop-opacity=".87"/>
            <stop offset=".4" stop-color="#d7e9ff" stop-opacity=".72"/>
            <stop offset=".6" stop-color="#b9d8ff" stop-opacity=".5"/>
            <stop offset=".82" stop-color="#94c2ff" stop-opacity=".23"/>
            <stop offset="1" stop-color="#73b0ff" stop-opacity="0"/>
        </radialGradient>
        <radialGradient id="g" cx="239.85" cy="262.01" r="260.67" gradientUnits="userSpaceOnUse">
            <stop offset="0" stop-color="#fff"/>
            <stop offset=".08" stop-color="#fcfdff" stop-opacity=".98"/>
            <stop offset=".18" stop-color="#f3f8ff" stop-opacity=".92"/>
            <stop offset=".29" stop-color="#e5f0ff" stop-opacity=".81"/>
            <stop offset=".41" stop-color="#d1e5ff" stop-opacity=".67"/>
            <stop offset=".54" stop-color="#b7d6ff" stop-opacity=".48"/>
            <stop offset=".68" stop-color="#97c4ff" stop-opacity=".26"/>
            <stop offset=".81" stop-color="#73b0ff" stop-opacity="0"/>
        </radialGradient>
    </defs>
    <title>
        blackhole
    </title>
    <g data-name="Layer 1" style="isolation:isolate">
        <circle data-name="&lt;Path&gt;" cx="243.29" cy="266.73" r="81.83"/>
        <path data-name="&lt;Compound Path&gt;" d="M429.37 310c-1.17-15.68-6.06-30.22-6.35-46.19-.37-20.36 3-42.2-11.18-58.86-6.5-7.63-14.82-12.87-20.46-21.46-6.52-9.93-9.31-21.48-14.28-32-10.41-22.06-28.4-24.94-47-36.48-17.64-11-22.23-20.53-45.48-21.16-24.93-.68-45.85 7.83-70.11 2.29-16.05-3.66-46.62-12.32-58.74-.95-24.6 23.11-59 25.09-71.55 65.65-9.22 29.87-28.76 47.4-22.85 81.03C64 256.64 71.54 270.05 73.52 285c1.46 11.06-1.63 21.09-1.77 32.25-.21 16.13 12.44 55.87 27.6 63.92l1.78 3.21-.43-.36c4 7.34 6.85 12.5 12.44 18.47 3.28 3.5 9.61 9.54 13.44 11.34 5.18 2.42 13.57 1.1 19.54 3.2 4.75 1.67 8.85 5.05 13.34 6.74a60.84 60.84 0 0 0 13.54 3.56c19.37 3.2 41.5 3.05 58.73 14.29 10.68 7 12.54 12.82 25.68 15.53 18.23 3.75 36.25-4.38 52.58-12.57 19.64-9.85 43.74-22 61.19-35.27 18.29-13.87 30.67-42.55 43.58-61.54 8.78-12.93 15.81-21.77 14.61-37.77zm-186.08 38.56a81.83 81.83 0 1 1 81.83-81.83 81.83 81.83 0 0 1-81.83 81.83z" fill="url(#a)"/>
        <path data-name="&lt;Compound Path&gt;" d="M382.51 226.74c-10-29.75-22-45.73-47.73-64.06-8.43-6-18.45-9.79-26.7-15.87-5.83-4.29-6.1-8.69-10.34-12.44-6.92-6.1-8.07-5.89-17.06-6.61-13.39-1.07-25.56 3.77-38.57 3.82-23.3.09-33-20.73-55.66-18.87-27.46 2.26-29.18 23.94-42.5 43.11-8.24 11.86-22.85 14.23-31.36 25.78-7.13 9.68-12.6 22.89-18 33.69-12 24.17-.41 43.58 5.08 68.33 3.17 14.28-2.33 46 7.18 56.15l1.25-1.25c5.48 6.29 2.56 11.85 5 19.1 4.4 13.29 19.48 18.09 31.11 24.78 21.8 12.53 39.58 19.07 65 20.16 13.21.56 26.18-1.23 39.1 2.38 16.24 4.54 28.49 13.19 46 8.79 27.12-6.81 61.82-21.25 74.76-47.73 6-12.34 5.91-21.48 7.64-34.36 1.61-12 8.08-17.73 13.74-27.51 17.42-30.13 2.15-47.42-7.94-77.39zm-26 90.83c-3.63 16.29.32 25.54-12.84 37.27-20.25 18-42.48 18.71-68.64 14.59-14.15-2.23-26.57-6.89-41-4.56-19.08 3.08-31.3 9.54-50.78 2.59-8.49-3-24.74-8.71-31.24-15-6.14-6-10.18-14.74-16.13-20.82-11.52-11.78-2.71-27.39-2.71-44.52-6.06-17.43-8.45-51.57 3.14-65.92 10.69-13.2 23.93-35.29 38.59-44.56 7.87-5 18.35-5.23 26.55-9.49 8.75-4.55 14.31-11.37 24.6-13.06 21.34-3.5 31 8.7 49.78 14.45s36.1 7.35 42.74 28.87c3.71 12 2.64 19.37 12.82 28.31 11.79 10.35 23 19 32 32.42 16.23 24.07-1.25 34.28-6.86 59.44z" style="mix-blend-mode:hard-light" opacity=".92" fill="url(#b)"/>
        <path data-name="&lt;Path&gt;" d="M228 468.88c-17.88-35-43.47-63.71-52.59-104.08-9.21-40.75-7.62-75.55 21.27-106.55-10.13 6.84-18.34 7.79-28.54 14.88-17.26 12-26.84 22.18-37.11 37.58-22.31 33.42-31.34 52.51-34.69 87.09-1.43 14.79 1.91 39.31 2.53 46.37 1.05 11.91 21.27 33.37 35.67 31.8" style="mix-blend-mode:hard-light" fill="url(#c)"/>
        <path data-name="&lt;Path&gt;" d="M401.68 371.74c-30.43 6.13-55.11 6-82.2 1.75-23.41-3.63-45.08-10.06-64.82-22.59-19.23-12.2-30.47-38-30.47-38-4.1 19 7.09 45.41 15.77 60 13.47 22.56 31.9 39.18 53.6 55 15.17 11.1 30.44 20.49 48.88 24.85 8 1.89 19.47 8.18 27.89 7.48 14.58-1.21 11.29 2.51 28.85-3.76 32.14-11.48 29.66-26.69 52.29-35 23-8.47 15.94-60.09 12.08-80.28-18.6 15.49-37.32 25.6-61.87 30.55z" style="mix-blend-mode:hard-light" fill="url(#d)"/>
        <path data-name="&lt;Path&gt;" d="M199.48 209.17c9.47 2 15.94 3.48 24.41 8.26a38.17 38.17 0 0 1 8.59 6.35A84.24 84.24 0 0 0 219 204.47c-8.37-8.87-22.59-21.49-32.25-27.79-23.6-15.38-36.5-23.14-65.15-25.19-13.88-1-27.92 1.18-44.56 3-5.73.64-19.22 4.31-24.21 7.29-4.11 2.45-14.24 8.45-20.17 16-16.09 20.43-6.65 28.95-15 47.51C13.41 234.72.27 271.55.31 282c.12 31.59 2.48 43.86 17.22 47.47 3.28-2.79 7.6-29.7 24.18-55.92 10.56-16.7 37.87-40.38 52.49-48.6 15.48-8.71 34.16-16.8 51.89-18.21 17.46-1.38 36.16-1.27 53.39 2.43z" style="mix-blend-mode:hard-light" fill="url(#e)"/>
        <path data-name="&lt;Path&gt;" d="M496.14 219.71c1.42-20.05 10.28-28.68-4.89-46.82-6.6-7.89-15.44-14.76-21.42-22.95-6.52-8.92-4-15.09-4.93-25.07-1.46-16.14-21.63-28.3-20.16-44.08-4 25.65-3.58 38.41-12 70.67-5.27 20.11-19.13 41.88-29.27 60.17-10.24 18.49-27.61 34.6-43.28 48.37-26 22.85-58.06 42.56-92.41 41.34 17.25 14.38 50.29 13.89 71.4 11.12 48-6.29 94.31-17.13 135.56-44.22 0 0 24-25.75 23.38-32.21-.58-5.59-2.39-10.54-1.98-16.32z" style="mix-blend-mode:hard-light" fill="url(#f)"/>
        <path data-name="&lt;Path&gt;" d="M206.77 24.24c-23.92-1.17-46.54 1.52-66.81 15.19 51.91-13.15 112.12 31.74 138 73.24 15.45 24.81 28.88 51.7 26.45 81-2.71 32.55-16.84 54.12-16.84 54.12 8.79-1.73 29.19-23.71 36-34.71 13.38-21.75 19.81-43.56 22.16-66.07 2.19-20.92.85-50.12-6.55-70-4.49-12.08-15.33-12.59-26.31-18.11C300.58 52.74 294 39.39 281 33.71c-9.84-4.3-17.29-.14-27.84-2.21-15.75-3.1-30.25-6.46-46.4-7.25" style="mix-blend-mode:hard-light" fill="url(#g)"/>
    </g>
</svg>
