<svg id="ab11189f-9b74-486d-83cb-9a8f979f5e70" data-name="Layer 1" xmlns="http://www.w3.org/2000/svg" viewBox="0 0 50 50"><title>mars_scaled</title><circle cx="24.86" cy="24.86" r="24.86" transform="translate(-0.1 49.61) rotate(-89.76)" style="fill:#f2634d"/><path d="M11.8,8.49c-2.4,1.57-2.47,3.74-1.64,4.24,1.47.89,4.12-1.34,5.61-2.68C17.68,8.33,14.85,6.48,11.8,8.49Z" style="fill:#d1322d"/><path d="M7.28,21.54a1.31,1.31,0,0,0,.92,2c1.48.26,2.14-.69,1.72-2S7.82,20.71,7.28,21.54Z" style="fill:#d1322d"/><path d="M19.86,15.51c-3.29,2.09-4.31,5.39,0,5s7.1-3.47,5.73-4.94C24.36,14.23,21.44,14.51,19.86,15.51Z" style="fill:#d1322d"/><path d="M35.72,11.79c-2.91.58-5.11,2.88-1.79,4.06s10.06.06,7.55-2.48A7.13,7.13,0,0,0,35.72,11.79Z" style="fill:#d1322d"/><path d="M31.83,25c-1.14.66-2.57,2.32,0,1.9,2.32-.38,4-1.12,3.9-1.8C35.61,23.83,33.24,24.18,31.83,25Z" style="fill:#d1322d"/><path d="M11.9,32.28c-.39,3.67,1.75,8.15,4.37,4.64,2.31-3.1,2.92-6.94,0-7.26C13.15,29.3,12.08,30.62,11.9,32.28Z" style="fill:#d1322d"/><path d="M26.17,36.59c-.19,1.14-.44,2.94,1.29,2.55,2-.46,1.56-2.91,1.28-3.45C28.25,34.73,26.43,35.06,26.17,36.59Z" style="fill:#d1322d"/><path d="M39,31.2c-1.46,2.92-1.45,5.34,1.63,3.43s3.33-6.74,1.81-6.51C40.61,28.4,39,31.2,39,31.2Z" style="fill:#d1322d"/><path d="M18.8,41.95a1.89,1.89,0,0,0,.52,3.43c.9.37,3.94-.24,3.27-2.16C22,41.59,19.52,41.58,18.8,41.95Z" style="fill:#d1322d"/><path d="M17.84,1a24.86,24.86,0,0,0,14,47.71Z" style="fill:#fdffff;opacity:0.30000000000000004"/></svg>