<svg data-name="Layer 1" xmlns="http://www.w3.org/2000/svg" viewBox="0 0 50 50">
    <title>
        purple_scaled
    </title>
    <path d="M48.78 19.13A24 24 0 0 1 31 48.26C17.87 51.51 4.53 43.72 1.22 30.87A24 24 0 0 1 19 1.74c13.13-3.25 26.47 4.54 29.78 17.39z" fill="#a988d8"/>
    <path d="M14.89 15.17A3.14 3.14 0 0 1 12.57 19a3.22 3.22 0 0 1-3.9-2.28A3.13 3.13 0 0 1 11 12.9a3.22 3.22 0 0 1 3.89 2.27zM11.49 27.63a2.18 2.18 0 0 1-1.61 2.65 2.23 2.23 0 0 1-2.71-1.58 2.18 2.18 0 0 1 1.61-2.65 2.23 2.23 0 0 1 2.71 1.58zM27.45 22.09a4 4 0 0 1-5.39 1.33 3.8 3.8 0 0 1-1.36-5.28 4 4 0 0 1 5.39-1.33 3.8 3.8 0 0 1 1.36 5.28zM23.31 37.49a4 4 0 0 1-5.39 1.33 3.8 3.8 0 0 1-1.36-5.28 4 4 0 0 1 5.39-1.33 3.8 3.8 0 0 1 1.36 5.28zM39.45 11.73a3.14 3.14 0 0 1-2.33 3.81 3.22 3.22 0 0 1-3.9-2.28 3.14 3.14 0 0 1 2.33-3.81 3.22 3.22 0 0 1 3.9 2.28zM26.75 5.88a2.18 2.18 0 0 1-1.61 2.65 2.23 2.23 0 0 1-2.71-1.58A2.18 2.18 0 0 1 24 4.3a2.23 2.23 0 0 1 2.75 1.58zM39.35 28.1a2.18 2.18 0 0 1-1.61 2.65A2.23 2.23 0 0 1 35 29.17a2.18 2.18 0 0 1 1.61-2.65 2.23 2.23 0 0 1 2.74 1.58zM35.35 39.2a2.18 2.18 0 0 1-1.61 2.65A2.23 2.23 0 0 1 31 40.27a2.18 2.18 0 0 1 1.61-2.65 2.23 2.23 0 0 1 2.74 1.58z" fill="#8262bf"/>
    <path d="M19.1 1.71h-.11A24 24 0 0 0 1.22 30.87C4.53 43.72 17.87 51.51 31 48.26h.1z" fill="#fdffff" opacity=".3"/>
</svg>
