<svg data-name="Layer 1" xmlns="http://www.w3.org/2000/svg" viewBox="0 0 50 50">
    <title>
        red_planet_scaled
    </title>
    <path fill="none" d="M-14-13.5h78V64h-78"/>
    <path d="M.72 27.27a24.38 24.38 0 1 1 26.37 22 24.25 24.25 0 0 1-26.37-22z" fill="#f3764f"/>
    <path d="M11.55 5.05a24.1 24.1 0 0 0 15.53 44.17 24.25 24.25 0 0 0 22.2-26.14 23.86 23.86 0 0 0-3.53-10.61s-11.16-7.55-34.2-7.42z" fill="#fbb04f"/>
    <path d="M3.68 13.49a23.87 23.87 0 0 0-3 13.77 24.38 24.38 0 0 0 48.57-4.18 23.92 23.92 0 0 0-2-7.73C27 8.9 11.54 11.44 3.68 13.49z" fill="#f94f21"/>
    <path d="M27.08 49.22a24.25 24.25 0 0 0 22.2-26.14c-.05-.6-.13-1.18-.22-1.77-1.44-1.26-4.24-3.05-10.39-3.93s-7.39-.66-16.23-2.5-12.13.43-16 .6a19.36 19.36 0 0 0-4 .56A23.87 23.87 0 0 0 .72 27.27a24.27 24.27 0 0 0 26.36 21.95z" fill="#f7a456"/>
    <path d="M27.08 49.22a24.26 24.26 0 0 0 22.27-25.08S34 14.08 1.57 18.53a23.89 23.89 0 0 0-.86 8.73 24.27 24.27 0 0 0 26.37 21.96z" fill="#f94f21"/>
    <path d="M27.08 49.22a24.3 24.3 0 0 0 22.21-22c-2.78-1.06-21.15-7.36-48.58-.05v.1a24.27 24.27 0 0 0 26.37 21.95z" fill="#fbb04f"/>
    <path d="M47 35.57S29.88 26 .93 29A24.44 24.44 0 0 0 47 35.57z" fill="#f3764f"/>
    <path d="M46.26 37s-12.53-3.2-24.9-2.11C10.5 35.8 5 34.67 2.27 33.93a24.48 24.48 0 0 0 44 3z" fill="#fbb04f"/>
    <path d="M20.26 36.7c-8.34.72-12.85-.17-16.86-.31A24.5 24.5 0 0 0 45 38.88a78.64 78.64 0 0 0-24.74-2.18z" fill="#f94f21"/>
    <path d="M5.13 39.18a24.53 24.53 0 0 0 34.22 5.49s-10.63-4.79-34.22-5.49z" fill="#fbb04f"/>
    <path d="M37.29 46c-5.47-2.06-14-3.91-27.79-2.2A24.57 24.57 0 0 0 37.29 46z" fill="#f3764f"/>
    <path d="M27.09 1.12a24.64 24.64 0 0 0-4.17 0 24.12 24.12 0 0 0 0 48.1z" fill="#fdffff" opacity=".3"/>
</svg>
