<svg data-name="Layer 1" xmlns="http://www.w3.org/2000/svg" viewBox="0 0 50 50">
    <title>
        satellite_scaled
    </title>
    <path d="M48.75 17l-13.9 7.75a2.44 2.44 0 0 1-3.32-.94L29 19.32A2.44 2.44 0 0 1 30 16l13.9-7.75a2.44 2.44 0 0 1 3.32.94l2.51 4.5a2.44 2.44 0 0 1-.98 3.31zm-18.52-.54a1.9 1.9 0 0 0-.73 2.58l2.5 4.52a1.9 1.9 0 0 0 2.58.73l13.9-7.75a1.9 1.9 0 0 0 .74-2.54l-2.51-4.5a1.9 1.9 0 0 0-2.58-.73z" fill="#67c7c3"/>
    <path fill="#67c7c3" d="M29.722 20.013l17.688-9.86.262.471-17.687 9.86zM31.04 22.39l17.686-9.86.263.471-17.687 9.861z"/>
    <path fill="#67c7c3" d="M30.495 16.014l.472-.263 4.615 8.293-.472.262zM33.649 14.253l.472-.263 4.616 8.291-.471.263zM41.91 20.52l-.48.27-4.62-8.29.47-.27 4.63 8.29zM39.976 10.732l.472-.262 4.611 8.294-.472.262zM43.121 8.975l.472-.264L48.217 17l-.472.263zM20 33L6.12 40.78a2.44 2.44 0 0 1-3.32-.94l-2.51-4.5A2.44 2.44 0 0 1 1.23 32l13.9-7.75a2.44 2.44 0 0 1 3.32.94L21 29.72A2.44 2.44 0 0 1 20 33zm-18.5-.51a1.9 1.9 0 0 0-.73 2.58l2.51 4.5a1.9 1.9 0 0 0 2.58.74l13.9-7.75a1.9 1.9 0 0 0 .72-2.56L18 25.48a1.9 1.9 0 0 0-2.58-.73z"/>
    <path fill="#67c7c3" d="M.99 36.035l17.687-9.86.263.471-17.687 9.861zM2.307 38.403l17.687-9.86.263.47L2.57 38.875z"/>
    <path fill="#67c7c3" d="M4.914 30.28l.472-.263 4.621 8.289-.472.263zM8.07 28.512l.472-.263 4.619 8.29-.472.263zM16.33 34.78l-.48.26-4.62-8.29.48-.26 4.62 8.29zM14.388 24.993l.472-.263 4.624 8.287-.472.263z"/>
    <circle cx="31.76" cy="36.67" r="5.01" transform="rotate(-29.14 31.75 36.654)" fill="#f26922"/>
    <path d="M18.08 11.44l-1.83-3.29a1.33 1.33 0 1 0-.58.32l1.83 3.29z" fill="#67c7c3"/>
    <path d="M17.35 23.25L22.23 32l.55 1A3.88 3.88 0 0 0 28 34.48l3.81-2.12a3.88 3.88 0 0 0 1.5-5.27l-.55-1-4.87-8.74-2.73-4.9-10.58 5.9z" fill="#e88d24"/>
    <path d="M25.2 12.46l-1 .57a10 10 0 0 0 1.34-7.83L16.9 10l-8.63 4.81a10 10 0 0 0 7.37 3l-1 .57 4 7.19 10.58-5.9z" fill="#b9e3ea"/>
    <path fill="#7189c5" d="M33.45 39.02l2.1 3.74-.58.32-2.1-3.74.58-.32z"/>
    <path fill="#b9e3ea" d="M36.75 37.19l1.13 2.01-7.17 3.98-1.13-2.02 7.17-3.97z"/>
    <path d="M35.43 42.82L14.68 6a1.33 1.33 0 0 0 1 2.44l.94 1.69-8.35 4.68a10 10 0 0 0 7.37 3l-1 .57 2.73 4.9.63 1.09.47.84a2.44 2.44 0 0 0-3.31-.93L1.23 32a2.44 2.44 0 0 0-.94 3.32l2.51 4.5a2.44 2.44 0 0 0 3.32.94L20 33a2.44 2.44 0 0 0 1-3.28l-1.28-2.3L22.23 32l.55 1a3.87 3.87 0 0 0 4.32 1.87 5 5 0 0 0 2.49 6.31l1.13 2L34 41.35l1 1.73z" fill="#fdffff" opacity=".4"/>
    <path fill="#fdffff" opacity=".4" d="M8.49 35.572l2.68-1.495 1.389 2.49-2.681 1.495zM7.169 33.2l2.682-1.494 1.056 1.896-2.682 1.494zM5.525 30.248l2.682-1.495 1.388 2.489-2.682 1.495zM11.658 33.82l2.681-1.494 1.388 2.49-2.681 1.494zM10.328 31.445l2.682-1.494 1.056 1.896-2.682 1.494zM8.685 28.485l2.682-1.494 1.387 2.49-2.682 1.494zM14.807 32.06l2.682-1.495 1.387 2.49-2.681 1.494zM13.485 29.685l2.681-1.495 1.057 1.896-2.681 1.495zM11.841 26.726l2.682-1.495 1.388 2.489-2.682 1.495zM20.48 30a1.9 1.9 0 0 1-.73 2.58l-.39.22L18 30.3l2-1.15zM16.65 27.932l2.052-1.144 1.056 1.895-2.052 1.145zM18.44 26.31l-2.05 1.14L15 25l.39-.22a1.9 1.9 0 0 1 2.58.73z"/>
</svg>
