<svg data-name="Layer 1" xmlns="http://www.w3.org/2000/svg" viewBox="0 0 50 50">
    <title>
        saturn_scaled
    </title>
    <path d="M20.88 37.1a13.37 13.37 0 1 1 16.47-9.28M37.35 27.81a13.37 13.37 0 0 1-16.47 9.29" fill="#dae8cf"/>
    <path d="M26.81 11.06a29.14 29.14 0 0 1-10.9 8.38 22.55 22.55 0 0 1-4.37 1.38q-.13.48-.22 1a23 23 0 0 0 4.89-1.5 30.14 30.14 0 0 0 11.57-9q-.48-.17-.97-.26zM17.17 24.5a38.73 38.73 0 0 0 15.2-11.06q-.49-.36-1-.67a37.53 37.53 0 0 1-14.58 10.6A30.89 30.89 0 0 1 11.13 25q0 .6.13 1.2a32.1 32.1 0 0 0 5.91-1.7z" fill="#fff"/>
    <path d="M35.81 17.14A13.41 13.41 0 0 0 34.12 15a37.12 37.12 0 0 1-15.17 11.5 28.54 28.54 0 0 1-7.19 1.88 13.45 13.45 0 0 0 1.14 2.57A32 32 0 0 0 19.81 29a39.65 39.65 0 0 0 16-11.87M17 35.33a32.55 32.55 0 0 0 5.31-1.6 38.85 38.85 0 0 0 15.42-11.26" fill="#fff"/>
    <path d="M37.39 20.76a37.77 37.77 0 0 1-15.48 11.7 30.42 30.42 0 0 1-6.32 1.76A13.36 13.36 0 0 0 17 35.33M37.42 27.54a31 31 0 0 1-11.36 7.9M26.34 36.3a31.48 31.48 0 0 0 10.4-6.78" fill="#fff"/>
    <path d="M0 38.63c0-4.29 11.48-11.24 11.48-11.24l.27 1s-3.54 2.93-3 5.18 8.55-.16 17.35-5.21 13.33-9.24 14.84-13.37" fill="#e88d24"/>
    <path d="M49.08 8.69c3.77 1.52-4.18 10.44-21.8 21.07C14.45 37.5.06 43.82 0 38.63" fill="#e88d24"/>
    <path d="M40.94 14.94c1.42-3.88-6.83 0-6.83 0l-.65-.63s11.85-7.14 15.62-5.62" fill="#e88d24"/>
    <path d="M31 35.91l-13.54-23a13.36 13.36 0 0 0-5.91 14.59v-.08S0 34.34 0 38.63" fill="#fdffff" opacity=".4"/>
    <path d="M8.75 33.52c-.54-2.25 3-5.18 3-5.18v-.06a13.42 13.42 0 0 0 3.11 5.21c-3.47 1.1-5.86 1.21-6.11.03z" fill="#fdffff" opacity=".4"/>
</svg>
